<svg xmlns="http://www.w3.org/2000/svg" width="256" height="256" viewBox="0 0 64 64" role="img" aria-label="BookMatrixPro icon">
  <defs>
    <linearGradient id="g" x1="0" y1="0" x2="1" y2="1">
      <stop offset="0" stop-color="#6aa8ff"/>
      <stop offset="1" stop-color="#9b7bff"/>
    </linearGradient>
    <filter id="s" x="-20%" y="-20%" width="140%" height="140%">
      <feDropShadow dx="0" dy="2" stdDeviation="2" flood-color="#000" flood-opacity=".25"/>
    </filter>
  </defs>
  <rect x="6" y="6" width="52" height="52" rx="14" fill="#121933"/>
  <rect x="6" y="6" width="52" height="52" rx="14" fill="url(#g)" opacity=".85"/>
  <g filter="url(#s)">
    <path d="M20 20.5c0-1.38 1.12-2.5 2.5-2.5H40a2 2 0 012 2v24a2 2 0 01-2 2H22.5A2.5 2.5 0 0120 43.5V20.5z" fill="#ffffff"/>
    <path d="M24 21h14a2 2 0 012 2v20c0-2-2-3-4-3H24c-2 0-4 1-4 3V23a2 2 0 012-2z" fill="#eef2ff"/>
    <path d="M24 26h12" stroke="#9b7bff" stroke-width="2" stroke-linecap="round"/>
    <path d="M24 31h12" stroke="#6aa8ff" stroke-width="2" stroke-linecap="round"/>
    <path d="M24 36h9" stroke="#9b7bff" stroke-width="2" stroke-linecap="round"/>
  </g>
</svg>

